<?xml version="1.0" encoding="UTF-8" standalone="no"?>
<svg
   width="16"
   height="16"
   version="1.1"
   viewBox="0 0 16 16"
   id="svg4"
   xmlns="http://www.w3.org/2000/svg"
   xmlns:svg="http://www.w3.org/2000/svg">
  <defs
     id="defs4" />
  <path
     fill="#770088"
     d="M 0,0 H 16 V 16 H 0 Z"
     id="path1-3"
     style="stroke-width:0.0261992" />
  <path
     fill="#004cff"
     d="M 0,0 H 16 V 13.333333 H 0 Z"
     id="path2-6"
     style="stroke-width:0.0261992" />
  <path
     fill="#028121"
     d="M 0,0 H 16 V 10.666667 H 0 Z"
     id="path3-7"
     style="stroke-width:0.0261992" />
  <path
     fill="#ffee00"
     d="M 0,0 H 16 V 8 H 0 Z"
     id="path4-5"
     style="stroke-width:0.0261992" />
  <path
     fill="#ff8d00"
     d="M 0,0 H 16 V 5.333333 H 0 Z"
     id="path5"
     style="stroke-width:0.0261992" />
  <path
     fill="#e50000"
     d="M 0,0 H 16 V 2.6666667 H 0 Z"
     id="path6"
     style="stroke-width:0.0261992" />
  <g
     aria-label="e4mc"
     id="g4">
    <path
       d="m4.76 9.5761c0-0.053333-0.042667-0.064-0.069333-0.064-0.048 0-0.058667 0.032-0.069333 0.074667-0.18667 0.54933-0.66667 0.54933-0.72 0.54933-0.26667 0-0.48-0.16-0.60267-0.35733-0.16-0.256-0.16-0.608-0.16-0.8h1.488c0.11733 0 0.13333 0 0.13333-0.112 0-0.528-0.288-1.0453-0.95467-1.0453-0.61867 0-1.1093 0.54933-1.1093 1.216 0 0.71467 0.56 1.232 1.1733 1.232 0.65067 0 0.89067-0.592 0.89067-0.69333zm-0.352-0.70933h-1.264c0.032-0.79467 0.48-0.928 0.66133-0.928 0.54933 0 0.60267 0.72 0.60267 0.928z"
       id="path1" />
    <path
       d="m6.5475 7.5054v-0.10747h-0.34667v-1.5773c0-0.069333 0-0.090133-0.055467-0.090133-0.0312 0-0.0416 0-0.069333 0.0416l-1.0643 1.6259v0.10747h0.92213v0.3016c0 0.1248-0.00693 0.16293-0.26347 0.16293h-0.0728v0.10747c0.14213-0.0104 0.3224-0.0104 0.468-0.0104s0.32933 0 0.47147 0.0104v-0.10747h-0.0728c-0.25653 0-0.26347-0.038133-0.26347-0.16293v-0.3016zm-0.5928-0.10747h-0.84587l0.84587-1.2931z"
       baseline-shift="super"
       id="path2" />
    <path
       d="m10.984 10.211v-0.16533c-0.27733 0-0.41067 0-0.416-0.16v-1.0187c0-0.45867 0-0.624-0.16533-0.816-0.074667-0.090667-0.25067-0.19733-0.56-0.19733-0.448 0-0.68267 0.32-0.77333 0.52267-0.074667-0.464-0.46933-0.52267-0.70933-0.52267-0.38933 0-0.64 0.22933-0.78933 0.56v-0.56l-0.752 0.058667v0.16533c0.37333 0 0.416 0.037333 0.416 0.29867v1.4293c0 0.24-0.058667 0.24-0.416 0.24v0.16533l0.60267-0.016 0.59733 0.016v-0.16533c-0.35733 0-0.416 0-0.416-0.24v-0.98133c0-0.55467 0.37867-0.85333 0.72-0.85333 0.336 0 0.39467 0.288 0.39467 0.592v1.2427c0 0.24-0.058667 0.24-0.416 0.24v0.16533l0.60267-0.016 0.59733 0.016v-0.16533c-0.35733 0-0.416 0-0.416-0.24v-0.98133c0-0.55467 0.37867-0.85333 0.72-0.85333 0.336 0 0.39467 0.288 0.39467 0.592v1.2427c0 0.24-0.05867 0.24-0.416 0.24v0.16533l0.60267-0.016z"
       id="path3" />
    <path
       d="m13.304 9.5761c0-0.053333-0.05333-0.053333-0.06933-0.053333-0.048 0-0.05867 0.021333-0.06933 0.053333-0.15467 0.496-0.50133 0.56-0.69867 0.56-0.28267 0-0.752-0.22933-0.752-1.088 0-0.86933 0.43733-1.0933 0.72-1.0933 0.048 0 0.384 0.00533 0.57067 0.19733-0.21867 0.016-0.25067 0.176-0.25067 0.24533 0 0.13867 0.096 0.24533 0.24533 0.24533 0.13867 0 0.24533-0.090667 0.24533-0.25067 0-0.36267-0.40533-0.57067-0.816-0.57067-0.66667 0-1.1573 0.576-1.1573 1.2373 0 0.68267 0.528 1.2107 1.1467 1.2107 0.71467 0 0.88533-0.64 0.88533-0.69333z"
       id="path4" />
  </g>
</svg>
